<svg version="1.1" viewBox="0 0 726 450" xmlns="http://www.w3.org/2000/svg"><path d="m403 154c-30.6 0-56.5 26.5-56.5 57.8v76.9h17.2v-49.7h77.5v49.7h17.4v-75.4c0-32.7-24.9-59.3-55.6-59.3zm-223 0.699c-18.4 0-31.3 12.9-31.3 31.4 0 8.8 3.3 16.9 9.2 22.8 4.9 4.8 9.9 7.7 22 13.3 10.7 4.7 15.4 7.4 19.4 11.1 4.8 4.9 7.2 10.5 7.2 17.2 0 14.3-11.2 25-26.1 25-14.6 0-25.6-9.4-25.6-21.8v-14.3h-16.9v14.3c0 21.1 19.3 38.9 42.1 38.9 24.1 0.1 43.8-19.6 43.8-43.7 0-19.2-10.8-33.4-32.1-42.1-24-10.2-26-13.8-26-22 0-5.9 2.4-13 14.1-13 9.4 0 13.5 3.6 15 13.4l0.701 4.8 16.8-3.1-0.799-4.6c-3.1-17.5-14.6-27.6-31.5-27.6zm360 0.5c-17.9 0-34.8 7.2-47.7 20.3-12.9 13-19.9 30.2-19.9 48.2v0.301 0.301c0 18 7.1 35.1 19.9 48.2 12.9 13.1 29.8 20.3 47.7 20.3h0.199c15.6 0 28-4.8 45.9-17.8l3.7-2.7-9.5-14.1-3.9 2.6c-15.5 11.1-24.2 14.7-36.1 14.7-22.5 0-41.1-14.1-48-34.2-0.2-0.7-0.501-1.3-0.701-2v-0.102c-1.4-4.8-2.2-10-2.2-15.3 0-5.4 0.799-10.5 2.2-15.3v-0.0996c0.2-0.7 0.501-1.4 0.701-2.1 6.9-20.1 25.5-34.1 48-34.1 11.9 0 20.7 3.6 36.1 14.7l3.9 2.8 9.5-14.1-3.7-2.7c-17.9-13-30.3-17.8-45.9-17.8h-0.199zm-298 2.1v131h17.2v-38.7h0.0996 30.6c24.1 0 46.8-22.1 46.8-45.5 0-11-5.9-24.1-14.7-32.7-4.3-4.1-9.4-7.4-15.2-9.9-6.7-3.1-12.9-4.6-18.5-4.6h-46.3zm363 0.0996v131h81.8v-16.7h-64.6v-54.7h65v-16.7h-65v-26.6h64.6v-16.7h-81.8zm-561 1v131h81.8v-16.7h-64.6v-54.7h65v-16.7h-65v-26.6h64.6v-16.7h-81.8zm360 12.7c22.2 0 38.2 17.8 38.2 42.3v9.1h-77.4v-10.6c0-22.9 17.2-40.8 39.2-40.8zm-144 3h28.8c17.8 0 31.3 13 31.3 30.3 0 16.5-12.8 28.9-29.8 28.9h-30.3v-59.2zm428 131-6.4 9.7h-36.4v131h81.8v-16.7h-64.6v-54.6h64.9v-16.7h-64.9v-26.6h64.9v-16.7h-23.8l6.7-9.7h-22.2zm-349 6.3c-30.6 0-56.5 26.5-56.5 57.8v76.9h17.2v-49.7h77.5v49.7h17.4v-75.4c0-32.7-25-59.3-55.6-59.3zm133 0c-30.6 0-56.5 26.5-56.5 57.8v76.9h17.2v-76.9c0-22.9 17.2-40.8 39.2-40.8 22.2 0 38.2 17.8 38.2 42.3v75.4h17.4v-75.4c0.2-32.7-24.8-59.3-55.5-59.3zm-250 0.6c-18.4 0-31.3 12.9-31.3 31.4 0 8.8 3.3 16.9 9.2 22.8 4.9 4.8 9.9 7.7 22 13.3 10.7 4.7 15.4 7.4 19.4 11.1 4.8 4.9 7.2 10.5 7.2 17.2 0 14.3-11.2 25-26.1 25-14.6 0-25.6-9.4-25.6-21.8v-14.3h-16.9v14.4c0 21.1 19.3 38.9 42.1 38.9 24.2 0 43.8-19.6 43.8-43.8 0-19.2-10.8-33.4-32.1-42.1-24-10.2-26-13.8-26-22 0-5.9 2.4-13 14.1-13 9.4 0 13.5 3.6 15 13.4l0.699 4.8 16.8-3.1-0.801-4.6c-3.1-17.5-14.6-27.6-31.5-27.6zm307 2.8v16.7h43.3v115h17.6v-115h44.3v-16.7h-105zm-189 13.6c22.2 0 38.2 17.8 38.2 42.3v9.1h-77.4v-10.6c0-22.9 17.2-40.8 39.2-40.8z" fill="#e83182"/><path d="m122 0c-11.8 0-24.2 5.2-33 13.8-2.3 2.2-3.9 4.1-5.5 6.6-1.3-1.8-2.6-3.3-4.4-5.2l-0.199-0.199c-4.3-4.1-9.1-7.6-13.9-10.1l-0.199-0.0996c-6-2.7-12.7-4.1-19.7-4.1-25.1 0-44 20.1-44 46.8v213 150c0 19.4 15.8 35.3 35.3 35.3h131v-16.7l-131-0.201c-10.1 0-18-8.5-18-18.6v-366c0-16 10.9-27.2 26.4-27.2 17.4 0 30.5 12.8 30.5 29.8v87.8h17.4v-87.9c0-10.7 1.8-15.7 7.7-21.4 5.8-5.5 13.5-8.5 21.6-8.5 16.1 0 28.3 12.9 28.3 29.9v87.9h17.2v-89.4c0-24.3-21.2-45.6-45.3-45.6zm269 0.0996c-30.6 0-56.5 26.5-56.5 57.8v76.9h17.2v-76.9c0-22.9 17.2-40.8 39.2-40.8 22.2 0 47.7 17.8 47.7 42.3v75.8l252-0.199c10.1 0 18 9 18 19.1v135h17.2v-135h0.201c0-19.4-15.8-35.3-35.3-35.3l-234-0.4v-59c0-32.7-34.4-59.3-65.1-59.3zm-140 1.4c-37.1 0-68.5 31.7-68.5 69.2 0.1 37 31.7 68.4 69 68.4 18.1 0 35.2-7.3 48.2-20.4s20.1-30.4 20.1-48.7c0-18.1-7.2-35.2-20.2-48.2-13.1-13.1-30.3-20.3-48.6-20.3zm0.199 17c29 0 51.8 22.7 51.8 51.6 0 29.2-22.6 52.1-51.4 52.1-29.1 0-51.9-22.7-51.9-51.6-0.1-29.2 22.6-52.1 51.5-52.1z" fill="#0c419a"/></svg>